<svg width="50" height="50" viewBox="0 0 50 50" fill="none" xmlns="http://www.w3.org/2000/svg">
<path d="M50 25C50 38.8071 38.8071 50 25 50C11.1929 50 0 38.8071 0 25C0 11.1929 11.1929 0 25 0C38.8071 0 50 11.1929 50 25Z" fill="url(#paint0_linear_24_5)" fill-opacity="0.97"/>
<path d="M15.0355 24.7518C14.0898 24.7518 13.617 24.9527 13.617 25.3546C13.617 25.6619 13.8061 26.253 14.1844 27.1277L17.6596 35C18.2979 33.4634 18.8298 32.1277 19.2553 30.9929C19.7045 29.8345 20 29.0662 20.1418 28.6879C20.4965 27.8132 20.7092 27.2695 20.7801 27.0567C20.8747 26.8203 20.9811 26.5366 21.0993 26.2057C21.2175 25.8511 21.2766 25.5437 21.2766 25.2837C21.2766 25.1182 21.0875 24.9882 20.7092 24.8936C20.1891 24.7991 19.7518 24.7518 19.3972 24.7518C19.3499 24.6572 19.3262 24.5035 19.3262 24.2908C19.3262 24.078 19.3499 23.9362 19.3972 23.8652C20.7683 23.9835 21.7021 24.0426 22.1986 24.0426C22.695 24.0426 23.1324 24.0189 23.5106 23.9716C23.8889 23.9243 24.3144 23.8889 24.7872 23.8652C24.8345 23.9362 24.8582 24.078 24.8582 24.2908C24.8818 24.5035 24.8582 24.6572 24.7872 24.7518C23.8889 24.7518 23.3452 24.8818 23.156 25.1418C22.9196 25.4728 22.6005 26.1229 22.1986 27.0922L17.3404 38.6525C17.2459 38.8652 17.0686 39.078 16.8085 39.2908C16.5721 39.5035 16.383 39.6099 16.2411 39.6099C16.1229 39.6099 16.052 39.5745 16.0284 39.5035C16.0047 39.4563 15.9693 39.3853 15.922 39.2908L10.8156 27.4113C10.6738 27.0804 10.5319 26.7376 10.3901 26.383C10.2482 26.0284 10.1064 25.721 9.96454 25.461C9.84634 25.1773 9.58629 24.9882 9.1844 24.8936C8.80615 24.7991 8.5461 24.7518 8.40425 24.7518C8.33333 24.6572 8.30969 24.5035 8.33333 24.2908C8.33333 24.078 8.35697 23.9362 8.40425 23.8652C9.51537 23.9835 10.6265 24.0426 11.7376 24.0426C12.7541 24.0426 13.8534 23.9835 15.0355 23.8652C15.0827 23.9362 15.1064 24.078 15.1064 24.2908C15.1064 24.5035 15.0827 24.6572 15.0355 24.7518Z" fill="white"/>
<path d="M34.8936 30.7801C33.8771 30.7801 32.7778 30.8392 31.5957 30.9574C31.5485 30.8865 31.5248 30.7447 31.5248 30.5319C31.5248 30.3191 31.5485 30.1655 31.5957 30.0709C32.0922 30.0709 32.4586 30.0236 32.695 29.9291C32.9314 29.8109 33.0615 29.7163 33.0851 29.6454C33.2033 29.3617 33.2624 28.6288 33.2624 27.4468V23.5816L33.227 23.5106V23.4752C32.8014 23.4515 32.3641 23.4397 31.9149 23.4397C30.9456 23.4397 30.1182 23.4397 29.4326 23.4397C28.7707 23.4397 28.3333 23.4515 28.1206 23.4752C27.9314 23.4752 27.8132 23.487 27.766 23.5106C27.7187 23.5106 27.6832 23.5106 27.6596 23.5106C27.6359 23.5343 27.6241 23.5579 27.6241 23.5816V27.4468C27.6241 27.9669 27.6241 28.4043 27.6241 28.7589C27.6478 29.1135 27.695 29.3735 27.766 29.539C27.8369 29.6809 27.9314 29.7872 28.0496 29.8582C28.1915 29.9054 28.3333 29.9527 28.4752 30C28.7352 30.0473 29.0189 30.0709 29.3262 30.0709C29.3735 30.1655 29.3972 30.3191 29.3972 30.5319C29.3972 30.7447 29.3735 30.8865 29.3262 30.9574C27.104 30.7447 24.8818 30.7447 22.6596 30.9574C22.6123 30.8865 22.5887 30.7447 22.5887 30.5319C22.5887 30.3191 22.6123 30.1655 22.6596 30.0709C23.156 30.0709 23.5225 30.0236 23.7589 29.9291C23.9953 29.8109 24.1371 29.7163 24.1844 29.6454C24.3026 29.3617 24.3617 28.6288 24.3617 27.4468V18.8298C24.3617 17.695 24.3026 16.9622 24.1844 16.6312C24.0189 16.3712 23.5106 16.2411 22.6596 16.2411C22.6123 16.1466 22.5887 15.9929 22.5887 15.7801C22.5887 15.5674 22.6123 15.4255 22.6596 15.3546C23.8416 15.4728 24.9645 15.5319 26.0284 15.5319C27.0449 15.5319 28.1442 15.4728 29.3262 15.3546C29.3735 15.4255 29.3972 15.5674 29.3972 15.7801C29.3972 15.9929 29.3735 16.1466 29.3262 16.2411C28.8771 16.2411 28.5225 16.2884 28.2624 16.383C28.0024 16.4775 27.8605 16.5603 27.8369 16.6312C27.7187 16.8913 27.6478 17.1986 27.6241 17.5532C27.6241 17.9078 27.6241 18.3333 27.6241 18.8298V22.1631C27.6241 22.1868 27.6359 22.1986 27.6596 22.1986C27.7305 22.2695 28.4634 22.305 29.8582 22.305C31.2766 22.305 32.4113 22.2813 33.2624 22.234V22.1986L33.2979 22.1277L33.2624 18.8298C33.2624 17.695 33.2033 16.9622 33.0851 16.6312C32.9905 16.3712 32.4941 16.2411 31.5957 16.2411C31.5485 16.1466 31.5248 15.9929 31.5248 15.7801C31.5248 15.5674 31.5485 15.4255 31.5957 15.3546C32.7778 15.4728 33.9007 15.5319 34.9645 15.5319C36.0284 15.5319 37.1158 15.4728 38.227 15.3546C38.2742 15.4255 38.2979 15.5674 38.2979 15.7801C38.3215 15.9929 38.2979 16.1466 38.227 16.2411C37.7778 16.2411 37.4232 16.2884 37.1631 16.383C36.9031 16.4775 36.7612 16.5603 36.7376 16.6312C36.6194 16.9622 36.5603 17.695 36.5603 18.8298V27.4468C36.5603 28.6288 36.5957 29.3144 36.6667 29.5035C36.7376 29.669 36.8322 29.7872 36.9504 29.8582C37.0922 29.9054 37.2459 29.9527 37.4114 30C37.695 30.0473 37.9669 30.0709 38.227 30.0709C38.2979 30.1655 38.3215 30.3191 38.2979 30.5319C38.2979 30.7447 38.2742 30.8865 38.227 30.9574C37.1158 30.8392 36.0047 30.7801 34.8936 30.7801Z" fill="white"/>
<defs>
<linearGradient id="paint0_linear_24_5" x1="25" y1="0" x2="25" y2="50" gradientUnits="userSpaceOnUse">
<stop/>
<stop offset="1" stop-color="#455FBD" stop-opacity="0.38"/>
</linearGradient>
</defs>
</svg>
